<?xml version="1.0" standalone="no"?>
<!DOCTYPE svg PUBLIC "-//W3C//DTD SVG 20010904//EN"
 "http://www.w3.org/TR/2001/REC-SVG-20010904/DTD/svg10.dtd">
<svg version="1.0" xmlns="http://www.w3.org/2000/svg"
 width="1280.000000pt" height="640.000000pt" viewBox="0 0 1280.000000 640.000000"
 preserveAspectRatio="xMidYMid meet">
<g transform="translate(0.000000,640.000000) scale(0.100000,-0.100000)"
fill="#000000" stroke="none">
<path d="M6950 5218 c0 -24 27 -176 61 -338 88 -429 135 -685 174 -947 53
-351 46 -390 -24 -146 -78 271 -170 513 -231 608 l-25 40 -3 -31 c-3 -35 8
-103 67 -404 75 -383 119 -661 151 -940 37 -328 70 -895 53 -924 -11 -20 -10
-24 -59 184 -68 292 -184 553 -330 747 -35 47 -64 94 -64 105 0 11 -5 18 -12
16 -7 -3 -39 17 -71 44 -33 27 -98 68 -146 92 -78 40 -93 52 -144 119 -93 122
-199 216 -302 269 -171 87 -175 77 -27 -76 60 -61 120 -127 135 -147 l28 -37
-13 -111 c-6 -61 -15 -117 -20 -124 -5 -8 -27 7 -70 50 -35 34 -101 84 -148
111 l-85 49 4 48 c3 52 -8 55 -29 5 -8 -18 -20 -30 -31 -30 -15 0 -18 -5 -14
-23 4 -14 -13 -71 -48 -157 -30 -74 -69 -179 -86 -233 -20 -59 -38 -96 -44
-94 -20 6 -28 152 -23 392 5 231 17 352 60 633 13 83 19 152 14 152 -5 0 -22
-28 -37 -62 -70 -156 -124 -370 -157 -623 -22 -167 -24 -596 -5 -820 l14 -160
-27 -115 c-15 -63 -29 -125 -32 -138 -8 -36 -28 -20 -36 29 -21 117 -48 413
-54 574 -8 205 6 422 38 625 20 129 31 360 16 360 -21 0 -101 -217 -138 -376
-37 -157 -70 -423 -70 -561 0 -57 -11 -86 -24 -64 -4 5 -20 63 -37 128 -46
177 -132 461 -187 618 -96 270 -215 553 -241 569 -28 18 1 -142 104 -574 131
-549 216 -974 280 -1400 37 -246 54 -423 40 -408 -3 3 -25 117 -50 254 -55
312 -109 547 -190 829 -93 321 -203 624 -284 780 l-36 70 -3 -38 c-2 -20 -7
-35 -12 -32 -5 3 -30 49 -57 103 -47 96 -47 96 -51 59 -4 -48 17 -160 84 -442
69 -287 146 -634 185 -830 28 -141 38 -195 88 -487 30 -174 72 -508 66 -519
-8 -12 -182 -12 -190 0 -3 5 -10 81 -15 168 -31 489 -100 935 -214 1391 -64
254 -158 542 -177 542 -13 0 -6 -67 52 -455 52 -347 67 -491 51 -465 -6 8 -29
84 -51 167 -44 162 -94 311 -117 353 -14 23 -14 19 -9 -45 4 -38 26 -200 50
-360 51 -340 61 -427 46 -405 -6 8 -18 49 -27 90 -31 145 -103 426 -137 537
l-34 112 23 163 c26 181 78 477 123 698 16 80 33 175 37 210 6 58 6 64 -9 52
-35 -29 -151 -328 -216 -557 -64 -228 -146 -635 -167 -835 -4 -38 -23 -105
-45 -160 -21 -52 -50 -138 -64 -190 -60 -214 -57 -206 -65 -185 -4 11 -6 36
-4 55 22 200 64 694 61 703 -15 46 -113 -296 -158 -553 -22 -130 -28 -94 -28
165 0 261 -8 384 -37 550 -27 163 -93 376 -132 430 -13 18 -14 15 -9 -35 3
-30 15 -116 26 -190 35 -227 46 -472 33 -693 -17 -271 -61 -603 -117 -867 -16
-75 -21 -88 -30 -78 -3 3 -10 192 -15 419 -19 779 -57 1306 -100 1354 -12 13
-20 45 -25 95 -12 139 -36 313 -45 329 -38 68 -71 -350 -90 -1137 -8 -328 -11
-385 -24 -371 -2 2 -9 108 -15 234 -30 594 -64 955 -91 955 -41 0 -71 -535
-91 -1610 -6 -316 -13 -578 -15 -582 -3 -4 -45 -8 -95 -8 l-89 0 0 133 c0 72
4 147 10 165 14 52 87 412 110 547 54 326 69 668 36 854 -24 138 -33 141 -40
15 -12 -214 -37 -429 -72 -612 -33 -177 -45 -215 -60 -199 -14 14 -8 284 9
400 30 208 42 453 28 617 -11 138 -31 254 -50 288 -6 10 -11 -23 -15 -94 -9
-168 -25 -355 -32 -365 -4 -6 -11 -6 -19 1 -10 8 -15 7 -19 -7 -7 -23 -23
-162 -32 -276 -3 -48 -10 -89 -14 -92 -4 -2 -10 64 -13 148 -6 153 -26 301
-49 354 -11 25 -13 15 -20 -92 -30 -465 -63 -664 -199 -1235 -50 -207 -56
-195 -63 145 -12 514 -83 1015 -211 1480 -65 238 -170 518 -215 575 l-20 25 0
-32 c0 -17 24 -159 54 -315 105 -545 144 -825 178 -1268 14 -184 15 -971 1
-1085 -7 -66 -10 -70 -33 -70 -21 0 -25 4 -24 30 1 17 6 170 13 340 31 829
-67 1664 -280 2373 -86 287 -218 596 -243 571 -7 -7 29 -223 74 -444 77 -378
165 -969 151 -1008 -9 -23 -7 -28 -71 238 -75 314 -161 575 -251 763 -49 101
-69 124 -69 79 0 -28 27 -182 80 -452 82 -419 126 -720 164 -1110 29 -294 44
-725 26 -725 -5 0 -12 10 -14 23 -3 12 -12 58 -21 102 -74 359 -216 671 -409
897 -80 94 -131 134 -239 186 -72 36 -88 49 -134 110 -29 37 -92 106 -140 153
-69 66 -108 94 -183 132 -159 79 -159 67 4 -102 183 -191 301 -379 409 -651
77 -194 145 -456 182 -700 30 -203 12 -200 -39 5 -102 413 -265 739 -482 965
-83 86 -108 105 -192 148 -109 56 -142 68 -142 53 0 -6 54 -66 119 -135 66
-68 142 -157 171 -198 211 -300 360 -722 420 -1193 18 -142 40 -423 34 -439
-5 -13 -25 -16 -105 -16 l-99 0 0 -160 0 -160 6125 0 6125 0 0 160 0 160 -167
2 -168 3 -7 95 c-4 52 -15 192 -23 310 -9 118 -25 299 -37 402 l-22 188 48
327 c26 181 49 343 52 361 9 60 -14 32 -46 -55 -17 -49 -45 -135 -61 -192 -16
-57 -31 -107 -34 -109 -11 -12 -23 17 -40 98 -25 121 -79 307 -107 365 l-23
50 -3 -59 c-2 -32 6 -149 18 -260 11 -110 29 -298 39 -417 l19 -216 -28 -169
c-15 -93 -36 -239 -45 -324 -26 -237 -32 -235 -60 28 -16 153 -25 217 -55 412
-14 94 -20 205 -25 450 -5 281 -26 660 -39 702 -2 7 -7 26 -11 42 -4 17 -10
25 -15 20 -13 -13 -37 -171 -50 -335 -14 -176 -16 -189 -35 -189 -12 0 -15
-15 -15 -75 0 -41 -3 -75 -8 -75 -4 0 -19 26 -34 58 l-26 57 -1 -55 c-1 -31
11 -170 26 -310 25 -240 27 -280 25 -685 -1 -236 -2 -434 -2 -438 0 -4 -21 -7
-47 -5 l-48 3 -6 545 c-3 300 -9 617 -13 705 -9 206 -32 434 -47 471 l-12 29
-9 -37 c-7 -27 -16 -38 -28 -38 -14 0 -21 -12 -29 -52 -25 -127 -52 -475 -72
-921 -7 -147 -16 -267 -20 -267 -4 0 -12 15 -18 33 -12 40 -64 315 -86 457
l-16 106 40 179 c22 99 56 248 76 330 53 221 92 403 100 465 7 49 6 53 -8 42
-19 -16 -123 -259 -185 -434 -26 -72 -52 -133 -59 -135 -19 -7 -26 134 -20
407 6 251 15 351 56 603 12 70 21 137 21 148 0 32 -19 12 -46 -49 -63 -143
-125 -395 -155 -632 -18 -136 -18 -636 -1 -830 l12 -145 -32 -130 c-18 -71
-37 -129 -43 -128 -26 5 -65 351 -72 638 -6 256 3 390 43 656 17 107 24 184
19 195 -5 11 -7 40 -6 67 2 26 0 47 -4 47 -12 0 -74 -146 -104 -248 -56 -190
-101 -479 -101 -662 0 -82 -10 -124 -24 -102 -10 16 -75 268 -92 357 -9 44
-21 89 -28 100 -7 11 -43 108 -78 215 -81 242 -144 401 -216 550 -55 112 -56
114 -60 77 -4 -48 11 -121 113 -557 77 -327 133 -580 167 -755 15 -78 10 -206
-9 -212 -6 -2 -14 11 -18 29 -27 121 -177 604 -217 698 -12 28 -25 97 -34 180
-16 148 -26 196 -40 193 -5 -1 -12 -16 -15 -33 -11 -54 -25 -57 -51 -9 l-23
44 -3 -31 c-2 -18 8 -86 22 -153 14 -67 23 -127 21 -134 -5 -14 -31 -434 -41
-661 -4 -82 -10 -161 -14 -175 -6 -23 -8 -21 -13 19 -3 25 -9 173 -12 330 -13
668 -51 1169 -85 1134 -13 -14 -27 -104 -41 -263 -10 -111 -17 -148 -30 -160
-45 -42 -89 -644 -105 -1434 -4 -191 -11 -347 -15 -347 -14 0 -46 154 -88 420
-47 299 -55 405 -55 720 0 294 1 313 32 519 18 117 31 216 28 219 -9 8 -61
-114 -90 -208 -68 -227 -91 -417 -90 -762 0 -153 -4 -274 -8 -270 -4 4 -23 86
-42 182 -38 189 -84 361 -113 425 l-18 40 -3 -41 c-2 -23 8 -155 22 -295 14
-140 28 -299 31 -354 6 -92 5 -98 -9 -81 -9 11 -16 28 -16 37 0 30 -67 251
-100 329 -24 56 -38 115 -56 235 -62 421 -158 813 -269 1102 -49 125 -103 233
-117 233 -11 0 -5 -37 49 -315 52 -272 107 -592 123 -725 l12 -95 -45 -150
c-24 -82 -61 -222 -82 -310 -20 -88 -45 -187 -55 -220 -16 -55 -18 -57 -19
-25 -1 20 22 186 49 369 48 319 60 445 41 411 -19 -32 -84 -231 -118 -360 -19
-74 -42 -146 -50 -160 -13 -23 -14 -21 -8 35 3 33 28 210 56 394 50 333 68
491 56 491 -25 0 -146 -395 -216 -706 -95 -424 -151 -820 -179 -1289 l-7 -110
-93 -3 c-77 -2 -93 0 -99 13 -13 35 76 623 152 1002 47 231 80 379 170 763 79
339 105 464 105 513 0 28 -2 30 -15 16 -34 -34 -155 -331 -263 -643 -20 -60
-42 -111 -48 -113 -7 -2 -15 32 -22 89 -13 101 -30 173 -39 164 -4 -3 -10 -76
-14 -163 -17 -332 -56 -542 -230 -1253 -96 -391 -95 -390 -119 -390 -10 0 -21
4 -24 8 -3 4 17 100 44 213 93 395 169 771 204 1019 52 364 50 759 -5 945 -12
38 -13 39 -20 15 -4 -14 -7 -68 -8 -120 -2 -179 -34 -457 -82 -700 -26 -133
-28 -142 -40 -134 -6 3 -7 55 -3 132 7 145 -14 382 -42 472 l-17 55 -8 -40
c-4 -22 -8 -83 -9 -135 -2 -236 -51 -559 -151 -1000 -44 -195 -57 -240 -68
-240 -4 0 -13 120 -19 268 -26 587 -100 1054 -243 1530 -67 222 -175 482 -201
482 -11 0 -5 -37 48 -310 130 -677 178 -1074 193 -1585 7 -263 -2 -817 -14
-856 -5 -14 -16 -19 -42 -19 l-36 0 7 108 c14 239 18 911 7 1112 -24 430 -73
823 -147 1190 -102 505 -297 1103 -430 1322 -46 75 -54 79 -54 26z m-1017
-1957 c99 -106 195 -247 179 -263 -7 -7 -12 -42 -12 -86 0 -61 -2 -72 -13 -63
-8 6 -19 29 -26 50 -6 22 -16 43 -21 46 -16 10 -12 -61 17 -330 25 -233 27
-281 28 -700 l0 -450 -44 -3 c-28 -2 -47 1 -52 10 -5 7 -9 213 -9 458 0 620
-20 1091 -51 1232 -12 52 -23 55 -32 8 -5 -21 -12 -30 -26 -30 -16 0 -21 -11
-30 -62 -24 -145 -53 -530 -71 -932 -13 -303 -17 -311 -57 -119 -13 65 -37
196 -53 292 l-30 173 40 177 c43 193 148 639 155 659 9 26 35 9 108 -67z m419
-95 c62 -124 71 -158 83 -313 9 -115 -1 -120 -51 -20 -20 39 -55 103 -78 142
-40 67 -41 73 -52 200 -5 71 -8 136 -5 144 7 23 37 -21 103 -153z m-5555 22
c87 -94 201 -274 269 -428 51 -117 119 -327 149 -465 49 -222 85 -531 85 -736
l0 -99 -95 0 c-68 0 -97 4 -99 13 -2 6 -9 125 -15 262 -21 450 -77 779 -192
1111 -38 110 -109 281 -133 319 -38 61 -19 75 31 23z m5794 -43 c60 -72 69
-99 49 -150 -5 -14 -14 -24 -19 -21 -8 5 -121 232 -121 243 0 2 8 3 17 1 9 -2
43 -35 74 -73z m191 -300 c114 -226 200 -525 242 -840 18 -138 39 -435 34
-495 l-3 -45 -94 -3 c-69 -2 -97 1 -103 10 -4 7 -8 81 -8 164 0 350 -54 743
-144 1061 -32 112 -34 126 -25 185 14 93 17 98 41 68 11 -14 38 -61 60 -105z
m-2695 -311 c73 -501 126 -1015 110 -1058 -6 -14 -19 -16 -89 -14 l-83 3 -6
60 c-16 143 -21 678 -10 910 20 407 31 421 78 99z m5163 46 c18 -264 14 -1003
-6 -1097 -4 -22 -9 -23 -88 -23 -61 0 -85 4 -89 13 -6 16 15 297 39 507 21
194 101 758 110 771 15 25 23 -16 34 -171z m-6823 128 c-3 -8 -6 -5 -6 6 -1
11 2 17 5 13 3 -3 4 -12 1 -19z m8093 -153 c73 -358 150 -869 153 -1010 l2
-80 -91 -3 c-88 -3 -92 -2 -98 20 -3 13 -6 142 -6 288 -1 146 -5 413 -9 595
-5 181 -6 336 -3 343 10 28 23 -9 52 -153z m-4179 -25 c42 -130 99 -358 99
-396 0 -17 -7 -75 -15 -130 -8 -54 -19 -146 -25 -202 -5 -57 -13 -108 -16
-114 -11 -18 -24 15 -24 62 -1 70 -38 375 -70 565 -19 117 -27 324 -13 339 13
13 33 -26 64 -124z m-2540 -825 l4 -240 -25 0 c-24 0 -25 3 -28 70 -4 81 14
389 24 424 15 51 21 -15 25 -254z m5693 248 c9 -49 29 -461 23 -477 -4 -9 -18
-16 -33 -16 l-27 0 6 188 c4 103 7 220 7 260 0 72 14 97 24 45z m-3944 -37 c0
-3 20 -98 45 -213 25 -114 45 -216 45 -225 0 -15 -9 -18 -54 -18 -31 0 -58 5
-63 13 -6 6 -16 43 -24 81 -11 60 -11 86 5 209 9 78 20 145 22 149 5 8 24 11
24 4z m5805 -224 c25 -117 43 -217 40 -222 -3 -6 -30 -10 -60 -10 -60 0 -59
-2 -80 100 -12 58 -12 79 6 200 22 152 26 167 39 154 5 -5 30 -105 55 -222z
m-8935 -2 c-5 -52 -17 -124 -27 -160 -15 -53 -22 -66 -41 -68 -17 -3 -22 2
-22 19 0 28 57 276 71 309 20 45 28 0 19 -100z"/>
</g>
</svg>
